<?xml version="1.0" encoding="UTF-8"?>
<!-- Uploaded to: SVG Repo, www.svgrepo.com, Generator: SVG Repo Mixer Tools -->
<svg width="800px" height="800px" viewBox="0 0 600 600" version="1.1" xmlns="http://www.w3.org/2000/svg" xmlns:xlink="http://www.w3.org/1999/xlink" preserveAspectRatio="xMidYMid">
    <defs>
        <linearGradient x1="49.9947839%" y1="122.450358%" x2="49.9947839%" y2="31.1390083%" id="linearGradient-1">
            <stop stop-color="#FFF100" offset="0%">
</stop>
            <stop stop-color="#F05A28" offset="100%">
</stop>
        </linearGradient>
    </defs>
    <g>
        <path fill-rule="evenodd" clip-rule="evenodd" fill="#000" d="M443.551,215.016c-9.475,0-17.154-7.684-17.154-17.163
      c0-9.479,7.68-17.163,17.154-17.163s17.154,7.684,17.154,17.163C460.705,207.332,453.025,215.016,443.551,215.016L443.551,215.016z
       M594.514,354.038c-3.193-1.066-27.545-12.717-53.762-28.377c0.195-0.268,0.391-0.537,0.582-0.801
      c6.488-9.016,32.721-37.389-20.586-175.063c-36.883-95.256-126.947-90.965-126.947-90.965S270.286-1.239,258.278,5.627
      c-12.009,6.865-13.724,176.779-5.146,192.226c8.577,15.447,96.067,60.072,101.212,61.787c5.148,1.717,1.717,8.582-1.715,12.014
      c-3.43,3.434-123.515-46.339-132.092-53.204c-8.577-6.866-10.293-133.873-10.293-133.873C129.616,100.023,4.385,204.6,4.385,254.491
      c0,1.18,0.02,2.404,0.056,3.664c0.017,0.67,0.043,1.338,0.07,2.006c0.019,0.461,0.041,0.926,0.063,1.396
      c0.042,0.852,0.086,1.701,0.143,2.547c4.336,68.664,49.991,228.953,61.426,228.953c5.146,0,80.628,0,85.774,0
      c4.102,0,12.564-51.246,15.829-72.047c13.179,2.225,26.816,3.395,40.783,3.395c7.257,0,14.423-0.32,21.485-0.936
      c2.24,26.262,6.674,69.588,11.109,69.588c5.146,0,82.344,0,87.49,0c8.576,0,78.912-197.375,78.912-197.375
      c15.439,5.148,25.732,18.879,25.732,46.34c1.715,17.164-27.447,56.639-22.301,75.518c5.146,18.881,60.041,61.789,68.619,61.789
      s24.016-20.598,24.016-29.18c0-8.58-37.668-25.158-32.594-37.758c4.672-11.6,33.709-42.354,55.678-68.838
      c32.111,12.803,64.316,24.303,66.123,22.498C596.23,362.62,599.66,355.753,594.514,354.038L594.514,354.038z">
        </path>
    </g>
</svg>